<?xml version="1.0" encoding="UTF-8"?>
<svg version="1.1" xmlns="http://www.w3.org/2000/svg" width="64" height="64">
<path d="M0 0 C2.30078125 0.98046875 2.30078125 0.98046875 5.30078125 2.98046875 C7.40072629 2.54782922 7.40072629 2.54782922 9.67578125 1.73046875 C16.78235884 0.02741317 22.20094563 3.59592046 28.30078125 6.98046875 C28.63078125 6.65046875 28.96078125 6.32046875 29.30078125 5.98046875 C30.9669524 5.93983043 32.6346622 5.93774775 34.30078125 5.98046875 C34.30078125 5.32046875 34.30078125 4.66046875 34.30078125 3.98046875 C37.60078125 3.98046875 40.90078125 3.98046875 44.30078125 3.98046875 C44.30078125 10.25046875 44.30078125 16.52046875 44.30078125 22.98046875 C41.01302083 23.14322917 37.72526042 23.30598958 34.4375 23.46875 C30.93436511 24.04024523 30.58790301 24.50520329 28.30078125 26.98046875 C27.20636719 27.42003906 26.11195312 27.85960938 24.984375 28.3125 C20.89746271 29.96081269 18.3344808 32.48307296 15.36328125 35.66796875 C14.87021484 36.17908203 14.37714844 36.69019531 13.86914062 37.21679688 C12.67020395 38.4622942 11.48409642 39.72012041 10.30078125 40.98046875 C18.35106739 46.06718802 23.99170246 47.59503652 33.46484375 46.21484375 C34.40070312 46.1375 35.3365625 46.06015625 36.30078125 45.98046875 C38.30078125 47.98046875 38.30078125 47.98046875 38.61328125 50.91796875 C38.25846311 54.39518652 37.90132208 54.85009459 35.30078125 56.98046875 C32.38521058 58.46874395 29.30697292 59.53465857 26.23828125 60.66796875 C25.42939453 60.98830078 24.62050781 61.30863281 23.78710938 61.63867188 C16.8535409 64.22155004 10.26536391 65.35094177 3.13671875 62.88671875 C2.32460938 62.42265625 1.5125 61.95859375 0.67578125 61.48046875 C-0.16210938 61.01640625 -1 60.55234375 -1.86328125 60.07421875 C-2.46914063 59.71328125 -3.075 59.35234375 -3.69921875 58.98046875 C-4.19421875 59.47546875 -4.19421875 59.47546875 -4.69921875 59.98046875 C-6.3653899 60.02110707 -8.0330997 60.02318975 -9.69921875 59.98046875 C-9.69921875 60.64046875 -9.69921875 61.30046875 -9.69921875 61.98046875 C-12.99921875 61.98046875 -16.29921875 61.98046875 -19.69921875 61.98046875 C-19.69921875 55.71046875 -19.69921875 49.44046875 -19.69921875 42.98046875 C-14.86523438 42.78515625 -14.86523438 42.78515625 -10.03125 42.58984375 C-6.6069712 42.24251064 -6.6069712 42.24251064 -4.2109375 39.93359375 C-1.69921875 37.98046875 -1.69921875 37.98046875 5.30078125 37.98046875 C-1.95921875 30.72046875 -9.21921875 23.46046875 -16.69921875 15.98046875 C-14.55714329 11.69631783 -12.19275258 9.03796454 -8.88671875 5.66796875 C-8.36529297 5.10529297 -7.84386719 4.54261719 -7.30664062 3.96289062 C-3.39725786 -0.02458218 -3.39725786 -0.02458218 0 0 Z M-1.69921875 3.98046875 C-2.02921875 4.64046875 -2.35921875 5.30046875 -2.69921875 5.98046875 C-1.70921875 5.65046875 -0.71921875 5.32046875 0.30078125 4.98046875 C-0.35921875 4.65046875 -1.01921875 4.32046875 -1.69921875 3.98046875 Z M8.30078125 5.98046875 C8.81888485 7.94529265 8.81888485 7.94529265 10.30078125 9.98046875 C13.58521523 11.59282725 16.83369407 12.82477302 20.30078125 13.98046875 C20.63078125 14.97046875 20.96078125 15.96046875 21.30078125 16.98046875 C20.31335937 16.68011719 19.3259375 16.37976562 18.30859375 16.0703125 C17.0144362 15.68581642 15.72015907 15.30172264 14.42578125 14.91796875 C13.77480469 14.71880859 13.12382813 14.51964844 12.453125 14.31445312 C8.83370669 13.05508634 8.83370669 13.05508634 5.30078125 13.98046875 C5.92050614 15.96493866 5.92050614 15.96493866 7.30078125 17.98046875 C9.85564461 19.25775171 9.85564461 19.25775171 12.80078125 20.10546875 C18.11931407 21.79900157 18.11931407 21.79900157 20.30078125 23.98046875 C25.33583177 23.74182433 25.33583177 23.74182433 29.30078125 20.98046875 C29.54365614 18.54033926 29.54365614 18.54033926 29.42578125 15.85546875 C29.40773438 14.94539062 29.3896875 14.0353125 29.37109375 13.09765625 C29.34789063 12.39898437 29.3246875 11.7003125 29.30078125 10.98046875 C27.24404672 9.96866377 25.18012777 8.97145398 23.11328125 7.98046875 C21.96472656 7.42359375 20.81617188 6.86671875 19.6328125 6.29296875 C15.24014792 4.56268118 12.73626219 4.5019751 8.30078125 5.98046875 Z M37.30078125 6.98046875 C37.30078125 11.27046875 37.30078125 15.56046875 37.30078125 19.98046875 C38.62078125 19.98046875 39.94078125 19.98046875 41.30078125 19.98046875 C41.30078125 15.69046875 41.30078125 11.40046875 41.30078125 6.98046875 C39.98078125 6.98046875 38.66078125 6.98046875 37.30078125 6.98046875 Z M-6.69921875 8.98046875 C-8.4268601 12.43575145 -8.32841725 16.21197138 -7.69921875 19.98046875 C-5.38083315 22.58957838 -5.38083315 22.58957838 -2.69921875 23.98046875 C-2.71984375 23.07296875 -2.74046875 22.16546875 -2.76171875 21.23046875 C-2.66218171 16.05454282 -2.66218171 16.05454282 -1.69921875 13.98046875 C-0.04717419 13.27834981 1.62001894 12.61075462 3.30078125 11.98046875 C3.63078125 10.99046875 3.96078125 10.00046875 4.30078125 8.98046875 C0.67078125 8.98046875 -2.95921875 8.98046875 -6.69921875 8.98046875 Z M32.30078125 9.98046875 C32.30078125 13.28046875 32.30078125 16.58046875 32.30078125 19.98046875 C32.96078125 19.98046875 33.62078125 19.98046875 34.30078125 19.98046875 C34.30078125 16.68046875 34.30078125 13.38046875 34.30078125 9.98046875 C33.64078125 9.98046875 32.98078125 9.98046875 32.30078125 9.98046875 Z M-11.69921875 13.98046875 C-11.36921875 14.97046875 -11.03921875 15.96046875 -10.69921875 16.98046875 C-10.36921875 15.99046875 -10.03921875 15.00046875 -9.69921875 13.98046875 C-10.35921875 13.98046875 -11.01921875 13.98046875 -11.69921875 13.98046875 Z M1.30078125 16.98046875 C0.62119522 19.37766307 0.62119522 19.37766307 0.30078125 21.98046875 C0.96078125 22.64046875 1.62078125 23.30046875 2.30078125 23.98046875 C4.87618338 23.81539229 4.87618338 23.81539229 7.30078125 22.98046875 C7.63078125 22.32046875 7.96078125 21.66046875 8.30078125 20.98046875 C7.51703125 20.69171875 6.73328125 20.40296875 5.92578125 20.10546875 C3.30078125 18.98046875 3.30078125 18.98046875 1.30078125 16.98046875 Z M8.98828125 24.98046875 C5.80091325 27.35246354 4.17842904 27.34118017 0.30078125 26.98046875 C3.24381223 30.7829335 3.24381223 30.7829335 7.63671875 32.3125 C9.87658455 32.29483544 12.07198924 32.19897777 14.30078125 31.98046875 C15.14532481 28.6022945 15.40923044 26.30581632 14.30078125 22.98046875 C11.16939722 22.65339278 11.16939722 22.65339278 8.98828125 24.98046875 Z M7.30078125 33.98046875 C7.63078125 34.64046875 7.96078125 35.30046875 8.30078125 35.98046875 C8.96078125 35.98046875 9.62078125 35.98046875 10.30078125 35.98046875 C10.30078125 35.32046875 10.30078125 34.66046875 10.30078125 33.98046875 C9.31078125 33.98046875 8.32078125 33.98046875 7.30078125 33.98046875 Z M-3.37890625 43.17578125 C-5.15821454 45.60785353 -5.00279152 47.18876771 -4.88671875 50.16796875 C-4.85964844 51.06902344 -4.83257812 51.97007813 -4.8046875 52.8984375 C-4.76988281 53.58550781 -4.73507812 54.27257813 -4.69921875 54.98046875 C-3.008082 55.69074618 -1.31683799 56.40076951 0.375 57.109375 C2.30078125 57.98046875 2.30078125 57.98046875 5.23828125 59.73046875 C11.71536921 62.37417812 18.87150972 59.39658404 25.17578125 57.16796875 C25.93375 56.91982422 26.69171875 56.67167969 27.47265625 56.41601562 C31.75767809 54.96187726 31.75767809 54.96187726 34.80859375 51.78125 C34.97101562 51.18699219 35.1334375 50.59273437 35.30078125 49.98046875 C31.82376312 48.82146271 30.67689071 49.19736664 27.23828125 50.23046875 C25.92150391 50.60945313 25.92150391 50.60945313 24.578125 50.99609375 C21.97854774 51.87484572 21.97854774 51.87484572 20.30078125 54.98046875 C14.44798625 54.46563956 8.97101755 53.52689683 3.30078125 51.98046875 C3.30078125 50.99046875 3.30078125 50.00046875 3.30078125 48.98046875 C4.03683594 49.19703125 4.77289063 49.41359375 5.53125 49.63671875 C6.50707031 49.91515625 7.48289062 50.19359375 8.48828125 50.48046875 C9.93267578 50.898125 9.93267578 50.898125 11.40625 51.32421875 C14.15424001 51.94724483 16.49676541 52.10349687 19.30078125 51.98046875 C18.68105636 49.99599884 18.68105636 49.99599884 17.30078125 47.98046875 C14.74591789 46.70318579 14.74591789 46.70318579 11.80078125 45.85546875 C6.48224843 44.16193593 6.48224843 44.16193593 4.30078125 41.98046875 C0.21694038 41.50401256 0.21694038 41.50401256 -3.37890625 43.17578125 Z M-16.69921875 45.98046875 C-16.69921875 50.27046875 -16.69921875 54.56046875 -16.69921875 58.98046875 C-15.37921875 58.98046875 -14.05921875 58.98046875 -12.69921875 58.98046875 C-12.69921875 54.69046875 -12.69921875 50.40046875 -12.69921875 45.98046875 C-14.01921875 45.98046875 -15.33921875 45.98046875 -16.69921875 45.98046875 Z M-9.69921875 45.98046875 C-9.69921875 49.28046875 -9.69921875 52.58046875 -9.69921875 55.98046875 C-9.03921875 55.98046875 -8.37921875 55.98046875 -7.69921875 55.98046875 C-7.69921875 52.68046875 -7.69921875 49.38046875 -7.69921875 45.98046875 C-8.35921875 45.98046875 -9.01921875 45.98046875 -9.69921875 45.98046875 Z " fill="#F5F5F5" transform="translate(19.69921875,0.01953125)"/>
<path d="M0 0 C0.99 0 1.98 0 3 0 C3 0.99 3 1.98 3 3 C2.01 3 1.02 3 0 3 C0 2.01 0 1.02 0 0 Z " fill="#F3F3F3" transform="translate(19,48)"/>
<path d="M0 0 C0.99 0 1.98 0 3 0 C3 0.99 3 1.98 3 3 C2.01 3 1.02 3 0 3 C0 2.01 0 1.02 0 0 Z " fill="#F4F4F4" transform="translate(42,15)"/>
</svg>
